<?xml version="1.0" encoding="utf-8"?>
<!-- Generator: Adobe Illustrator 25.4.1, SVG Export Plug-In . SVG Version: 6.00 Build 0)  -->
<svg version="1.1"
	 id="Capa_2" inkscape:version="1.0.2-2 (e86c870879, 2021-01-15)" xmlns:cc="http://creativecommons.org/ns#" xmlns:dc="http://purl.org/dc/elements/1.1/" xmlns:inkscape="http://www.inkscape.org/namespaces/inkscape" xmlns:rdf="http://www.w3.org/1999/02/22-rdf-syntax-ns#" xmlns:sodipodi="http://sodipodi.sourceforge.net/DTD/sodipodi-0.dtd" xmlns:svg="http://www.w3.org/2000/svg"
	 xmlns="http://www.w3.org/2000/svg" xmlns:xlink="http://www.w3.org/1999/xlink" x="0px" y="0px" viewBox="0 0 1200 2000"
	 style="enable-background:new 0 0 1200 2000;" xml:space="preserve">
<style type="text/css">
	.st0{fill:#E080B3;}
	.st1{fill:#666666;}
	.st2{fill:#999999;}
	.st3{fill:#FFFF00;}
	.st4{fill:#FFFFFF;}
</style>
<sodipodi:namedview  bordercolor="#666666" borderopacity="1" gridtolerance="10" guidetolerance="10" id="namedview162" inkscape:current-layer="g159" inkscape:cx="846.03518" inkscape:cy="1353.1536" inkscape:pageopacity="0" inkscape:pageshadow="2" inkscape:snap-text-baseline="true" inkscape:window-height="1017" inkscape:window-maximized="1" inkscape:window-width="1920" inkscape:window-x="1912" inkscape:window-y="-8" inkscape:zoom="0.28324258" objecttolerance="10" pagecolor="#ffffff" showgrid="false">
	</sodipodi:namedview>
<g id="g159">
	<path id="wave-bot" class="st0" d="M72.1,1186.3c2.2,168.7,3.8,337.4,4.8,506.1c0.8,2.4,1.8,4.8,2.8,7.1
		c45.8,60.4,122.1,88.7,192.6,108.3c150.8,41.9,309.4,47.5,464.1,28.1c78.3-9.8,155.8-26.4,231.7-47.8
		c36.7-10.4,73.5-21.3,109.1-34.8c23.9-9,52.4-22.5,59.6-49.3c0.3-1.2,0.8-2.3,1.2-3.3c-1.3-91.1-2.6-182.2-3.9-273.3
		c-0.9-0.4-1.8-0.8-2.7-1.2c-16.8-6.6-34.2-11.9-51.2-18.1c-70.7-25.8-140-55.6-207.4-89.1c-16.7-8.3-33.3-16.8-49.8-25.6
		c-10.5-5.6-27.8,1.1-26.3,15.1c6.5,58.2,17.2,115.7,32.5,172.1c-9.8-3.9-19.5-8-29.2-12.1c0,0,0,0.1,0,0.1l-0.1-0.1l-33.6-14.3
		l-25.3-11.2l-33.9-15.6c0,0,0,0,0,0c-2.4-1.1-4.8-2.3-7.2-3.4l-12-5.7c-2.4-1.1-4.8-2.3-7.2-3.4c0,0,0,0,0,0.1l-0.1,0l-30.2-15.3
		c-19.7-10-39.3-20.3-58.6-30.9c-28.8-15.8-56.5-33.5-85.3-49.4c-27.4-15.1-57.9-24.3-86.2-37.6c-12-5.7-25.7,1.1-26.3,15.1
		c-1.9,49.1,4,98.3,17.3,145.6c-7.7-3.6-15.2-7.5-22.8-11.3c0,0,0,0,0,0l0,0l-52.4-28.2l-0.1,0c0,0,0.1,0,0.1,0
		c-57-32.8-110.8-70.9-160.5-114l-34.9-32.1C120.4,1236.3,90.9,1205.8,72.1,1186.3z M1122.2,1458.9c0,0,0.1,0.2,0.3,0.4l0.2,0.5
		C1122.5,1459.4,1122.1,1458.8,1122.2,1458.9z"/>
	<g id="metal">
		<path id="bot" class="st1" d="M962,1826c-159.5,43.5-326.7,65-491.9,51.6c-81.5-6.6-163-21.1-240.8-46.3
			c-47.3-15.3-93.7-35.8-132.4-66.2c-4.2,33.6,13.6,65.7,38.2,88.1c29.4,26.7,68.3,42.2,106,52.9c37.8,10.8,76.7,17,115.5,22.5
			c41.3,5.9,82.9,10.2,124.5,13.3c82.9,6.1,166.3,6.7,249.3,1.9c72.9-4.2,148.5-9.4,218.2-33c30.8-10.4,61-25.4,85.8-46.7
			c22.3-19,41.9-44.2,43.2-74C1039.8,1804.2,1000.7,1815.5,962,1826z"/>
		<path id="neck" class="st1" d="M62.6,308.6c-1.7,2.5-4.9,6-5.8,9c0.9,4,6,8.4,8.7,10.9c15.1,14.2,36.5,20.1,56.1,25
			c27.7,6.9,55.6,12.8,83.5,18.7c189.6,39.8,385.7,61.3,577.4,23.8c84.7-16.6,168.4-42.1,246.1-79.9c18.9-9.2,37.4-19.2,55.5-29.9
			c9.1-5.4,18.4-10.9,27.1-17.1c1.2-0.9,3.2-2.5,4.4-3.3c0.3-0.2,0.6-0.4,0.8-0.6c0.2-3.7-2.1-7.7-3.8-10.8
			c-14.2-27.6-39.2-48.8-64.3-67.8c-9.7,18.9-31.2,31.8-48.7,42.5c-25,15.2-52.6,26.2-80.8,33.9C860.6,278.6,799,283,739.1,289
			c-60.7,6.1-121.6,10.8-182.6,12.1c-61.2,1.3-122.5-0.7-183.2-8.2c-58.4-7.2-119.3-17-174.3-38.8c-21.5-8.5-47.7-20-63.5-38.6
			c-16.7,19-32.8,38.4-48,58.6C79,285.5,70.7,297,62.6,308.6z"/>
		<path id="hinge" class="st2" d="M422,156.9c39.1,13,80.9,11.2,121.5,9.4C555,130.7,565.2,85.9,525.5,65
			c-16.1-8.5-35-12.4-52.6-16.5c-20.5-4.8-41.3-8.3-62.5-7.4c-16.8,0.7-35.5,4.1-49.3,14.4c-13.4,10-15.3,24.4-10.3,39.7
			C360.9,126.1,392.5,147.1,422,156.9z M403.9,80.7c2.2-3.6,5-6.4,8.5-8.6c1.1-0.7,2.3-1.1,3.5-1.7c1.3-0.5,2.5-1.1,3.9-1.5
			c4.2-1,8.5-1.3,12.8-0.8c4.4,0.6,8.8,1.2,13.1,2.5c5.5,1.8,10.8,4.4,15,8.5c4.8,4.8,8.2,11.8,7.7,18.7c-0.5,6.7-2.9,13.5-8.1,18.1
			c-3.7,3.2-7.5,5.2-12.4,5.9c-3.2,0.4-4.7,0.5-8.3-0.3c-0.2-0.1-0.4-0.2-0.6-0.2c-0.4,0-0.7,0.1-1.1,0.1
			c-5.7,0.2-11.7,0.1-17.1-1.9c-4.6-1.7-8.2-3.6-11.8-7c-2.8-2.6-4.7-5.8-6.2-9.3c-1.4-3.4-2.5-6.9-2.3-10.7
			C400.9,88.2,401.6,84.5,403.9,80.7z"/>
		<path id="lid" class="st2" d="M176,203.8c10.1,6.6,21,12.2,32.2,16.7c24.3,9.7,50,16.1,75.5,21.9
			c108.9,24.7,221.5,27.6,332.6,21.5c56-3,111.8-8.4,167.5-14.5c53.1-5.9,107.4-11.3,157.7-30.5c23.1-8.8,45.4-21.3,64.8-36.7
			c7-5.5,14.5-11.1,11.6-20.8c-2.8-9.8-12-15.7-20.4-20.4c-22.3-12.2-46.9-21.3-70.6-30.2c-24.8-9.3-50-17.6-75.6-24.6
			c-90.4-24.9-183.7-32.7-276.7-24.1c4.7,6.8,8,14.1,10.3,21.7c0.5-0.1,1-0.2,1.6-0.3c38.2-5,77-3.2,114.7,4.8
			c16.1,3.4,31.9,8,47.2,14c14.9,5.8,29.2,12.9,39.1,25.8c9.2,12,13,28.3,8.7,43c-4.6,15.5-18.6,25.2-33.9,28.4
			c-16.7,3.5-34.2,4.4-51.2,5.6c-18.3,1.3-36.6,2-54.9,2.1c-35.5,0.2-71-2-106.2-6.4c-0.1,0-0.2,0-0.3-0.1c-1,0.2-2,0.4-3.2,0.4
			c-54.9,2.3-112,3.4-162.1-22.5c-27.2-14.1-55-39.5-66.2-69.7c-1,0.2-1.9,0.4-2.9,0.6c-12.3,1.6-24.6,4-36.7,6.9
			c-25.3,6-50,14.4-73.5,25.5c-15.8,7.5-47.4,19.3-47.5,40.7C157.4,192.4,168.7,199.1,176,203.8z"/>
	</g>
	<g id="outline">
		<path id="path156" d="M409,112.6c3.6,3.4,7.2,5.3,11.8,7c5.4,1.9,11.4,2.1,17.1,1.9c0.4,0,0.7-0.1,1.1-0.1
			c0.2,0.1,0.4,0.2,0.6,0.2c3.5,0.9,5.1,0.7,8.3,0.3c4.9-0.7,8.7-2.7,12.4-5.9c5.2-4.5,7.6-11.4,8.1-18.1c0.5-6.9-2.9-13.9-7.7-18.7
			c-4.2-4.1-9.4-6.7-15-8.5c-4.3-1.4-8.7-2-13.1-2.5c-4.3-0.5-8.6-0.2-12.8,0.8c-1.3,0.3-2.6,0.9-3.9,1.5c-1.2,0.5-2.4,1-3.5,1.7
			c-3.5,2.2-6.4,5-8.5,8.6c-2.3,3.8-3.1,7.6-3.4,12c-0.3,3.8,0.8,7.3,2.3,10.7C404.3,106.8,406.2,110,409,112.6z"/>
		<path id="Outline" d="M32.4,862c3.1,178.8,5.5,357.5,7.3,536.3c1,101,1.8,202,2.4,303c0,5.2,2,9.2,4.9,12c0.3,0.6,0.5,1.2,1,1.8
			c6.4,8.6,13.2,16.6,20.5,24.2c-1.5,1.8-2.8,4.1-3.5,7c-9.8,38.8,1.7,79.2,25.9,110.4c24.2,31.2,58.6,51.9,94.6,67
			c38.2,16,78.6,25.2,119.3,32.1c43.7,7.4,87.8,13.1,132,17.4c88.5,8.6,177.5,10.9,266.3,7.1c43.7-1.9,87.3-5.1,130.8-10.3
			c37.8-4.5,75.5-10.5,112-21.5c40.4-12.2,78.6-30.7,111.2-57.7c31.8-26.5,58.4-65.4,55.5-108.5c-0.1-2-0.6-4-1.3-5.9
			c25.9-12.8,49.2-31,58.3-59.4c2.3-2.7,3.8-6.3,3.7-11c-2.6-187.1-5.3-374.1-8.1-561.2c-2.8-186.5-5.7-372.9-8.7-559.4
			c-1.7-105.1-3.4-210.3-5.2-315.4c0-0.5-0.1-0.9-0.2-1.3c0.6-4.6,0.4-9.5-1-15c-6.7-24.9-26.4-46.8-44.5-64.2
			c-17.7-16.9-37.4-31.7-57.1-46.3c-8.4-16.6-25.4-29-42.2-36.8c-27.1-12.8-55.1-24-83.3-34C815.6,33.9,701.3,17,587.6,25.9
			c-14.9,1.2-29.8,2.8-44.6,4.7c-2,0.3-3.9,0.8-5.7,1.5c-11.5-5.4-23.8-9.3-36.2-12.6C475.6,12.7,449.5,6.9,423.2,6
			c-44.9-1.5-104.6,15.3-109.8,68.1c0,0.2,0,0.5,0,0.7c-28.2,3.8-55.9,9.8-82.8,19.1c-26.3,9.2-54.5,20.2-77.2,36.7
			c-16.2,11.8-29.4,30.2-30.6,49.7c-2.3,0.9-4.6,2.3-6.7,4.7c-18.4,20.6-35.9,41.9-52.7,63.8c-7.9,10.4-15.7,20.8-23.3,31.5
			c-7.7,10.9-17.4,22.2-18,36.2c-0.5,1.8-0.9,3.7-0.9,5.9C25.5,502.2,29.3,682.1,32.4,862z M157.5,182.5
			c0.2-21.4,31.8-33.2,47.5-40.7c23.5-11.1,48.2-19.5,73.5-25.5c12.1-2.9,24.3-5.3,36.7-6.9c1-0.1,2-0.3,2.9-0.6
			c11.2,30.3,39,55.7,66.2,69.7c50.1,25.9,107.2,24.8,162.1,22.5c1.1,0,2.2-0.2,3.2-0.4c0.1,0,0.2,0,0.3,0.1
			c35.2,4.4,70.7,6.6,106.2,6.4c18.3-0.1,36.6-0.8,54.9-2.1c17-1.2,34.5-2.1,51.2-5.6c15.3-3.2,29.2-12.9,33.9-28.4
			c4.4-14.7,0.6-31-8.7-43c-9.9-12.9-24.2-20-39.1-25.8c-15.3-5.9-31.2-10.5-47.2-14c-37.7-8-76.5-9.8-114.7-4.8
			c-0.5,0.1-1,0.2-1.6,0.3c-2.3-7.6-5.6-14.9-10.3-21.7c93-8.5,186.4-0.8,276.7,24.1c25.6,7.1,50.8,15.3,75.6,24.6
			c23.8,8.9,48.3,18,70.6,30.2c8.4,4.6,17.6,10.6,20.4,20.4c2.8,9.7-4.6,15.3-11.6,20.8c-19.4,15.3-41.7,27.9-64.8,36.7
			c-50.3,19.2-104.5,24.6-157.7,30.5c-55.7,6.2-111.5,11.5-167.5,14.5c-111.1,6-223.7,3.2-332.6-21.5c-25.5-5.8-51.2-12.2-75.5-21.9
			c-11.2-4.5-22.1-10.1-32.2-16.7C168.7,199.1,157.4,192.4,157.5,182.5z M361.1,55.4c13.8-10.3,32.5-13.7,49.3-14.4
			c21.2-0.9,42,2.6,62.5,7.4c17.6,4.1,36.5,8.1,52.6,16.5c39.8,20.9,29.6,65.7,18.1,101.4c-40.6,1.7-82.5,3.5-121.5-9.4
			c-29.6-9.8-61.1-30.8-71.3-61.8C345.7,79.8,347.6,65.4,361.1,55.4z M135.5,215.6c15.8,18.6,42,30.1,63.5,38.6
			c55,21.8,115.9,31.6,174.3,38.8c60.7,7.4,122.1,9.5,183.2,8.2c61-1.3,121.9-6,182.6-12.1c59.9-6,121.5-10.4,179.7-26.2
			c28.2-7.7,55.7-18.7,80.8-33.9c17.5-10.6,39-23.6,48.7-42.5c25.1,19,50.1,40.2,64.3,67.8c1.6,3.1,4,7.2,3.8,10.8
			c-0.3,0.2-0.5,0.4-0.8,0.6c-1.2,0.8-3.2,2.5-4.4,3.3c-8.7,6.1-18,11.6-27.1,17.1c-18,10.8-36.6,20.7-55.5,29.9
			c-77.7,37.9-161.4,63.4-246.1,79.9c-191.7,37.5-387.8,16-577.4-23.8c-27.9-5.9-55.8-11.8-83.5-18.7c-19.6-4.9-41-10.8-56.1-25
			c-2.8-2.6-7.8-6.9-8.7-10.9c0.9-3,4.1-6.5,5.8-9c8-11.6,16.3-23.1,24.8-34.4C102.7,254,118.8,234.6,135.5,215.6z M1034.4,1864.2
			c-24.9,21.3-55,36.3-85.8,46.7c-69.7,23.6-145.2,28.8-218.2,33c-83,4.8-166.4,4.2-249.3-1.9c-41.6-3.1-83.2-7.4-124.5-13.3
			c-38.8-5.5-77.7-11.8-115.5-22.5c-37.7-10.8-76.6-26.2-106-52.9c-24.6-22.3-42.4-54.5-38.2-88.1c38.8,30.4,85.1,51,132.4,66.2
			c77.9,25.1,159.4,39.6,240.8,46.3c165.2,13.4,332.4-8.1,491.9-51.6c38.7-10.6,77.8-21.9,115.6-35.8
			C1076.3,1820.1,1056.7,1845.2,1034.4,1864.2z M1077.3,1753.3c-35.7,13.5-72.5,24.4-109.1,34.8c-75.9,21.4-153.4,38-231.7,47.8
			c-154.8,19.4-313.4,13.8-464.1-28.1c-70.5-19.6-146.8-47.9-192.6-108.3c-0.5-0.7-1.1-1.3-1.6-2c-0.4-0.5-0.8-0.9-1.2-1.4
			c0-1.2,0-2.5,0-3.7c-1-168.7-2.6-337.4-4.8-506.1c-0.1-8.3-0.2-16.6-0.3-24.8c-2.4-178.8-5.4-357.5-9-536.3
			c-0.1-6.9-0.3-13.8-0.5-20.7c-1.7-79.6-3.5-159.2-5.4-238.8c2.9,1.8,5.8,3.5,8.6,4.9c20,10.3,41.9,15.6,63.7,20.6
			c109.8,25.3,221.1,46,333.6,55c196.1,15.6,396.9-11.4,575.8-96.3c22.3-10.6,44.2-22.2,65.3-34.9c4.1-2.4,8.4-5,12.8-7.6
			c2.9,174.6,5.8,349.3,8.5,523.9c0.4,27,0.8,54,1.2,81c2.5,159.5,4.9,318.9,7.2,478.4c0.2,12.3,0.3,24.6,0.5,36.9
			c1.3,91.1,2.6,182.2,3.8,273.3c-0.5,1-0.9,2.1-1.2,3.3C1129.7,1730.8,1101.1,1744.3,1077.3,1753.3z M56.8,317.8
			c0.1,1.6-0.3,1-0.1,0.3C56.7,317.9,56.7,317.8,56.8,317.8z M1116.5,264.9c0.1-0.3,0.3-0.6,0.6-0.8c-0.1,0.2-0.1,0.3-0.2,0.5
			C1116.8,264.7,1116.7,264.8,1116.5,264.9z"/>
	</g>
	<path id="wave-top" class="st0" d="M1116.8,307.2c-4.4,2.6-8.7,5.2-12.8,7.6c-21.2,12.8-43,24.3-65.3,34.9
		C859.8,434.7,659,461.7,462.9,446.1c-112.5-8.9-223.7-29.6-333.6-55c-21.8-5-43.7-10.3-63.7-20.6c-2.8-1.4-5.7-3.1-8.6-4.9
		c1.9,79.6,3.7,159.2,5.4,238.8c25.5,27.8,51.8,55,78.7,81.4l34.9,33.5v0c5.7,5.3,11.2,10.7,17,15.9c25.4,23.2,51.3,45.9,77.7,67.9
		c6.7,5.5,13.4,11.2,20.4,16.5l0,0c10.5,7.6,19.7,13.2,29.5,19.7l22.3,9.1c12.3,4.2,21,5.9,26.2,4.8c9.2-2,8.4-11.8,3.9-29l-14.7-65
		c-4.3-19.1-8.6-38.2-13-57.3c17.7,13,35.7,25.6,53.7,38.1c0,0,0,0,0,0l53.6,36l0,0c0,0,0,0,0,0c57.7,37.6,117.2,72.6,178,105
		c0,0,0,0,0,0l33.4,17.4l52.3,26l32.5,14.6c13-3.1,20.1-11.4,16.3-29.7l-36.5-70.9c-16.3-33.1-31.4-66.6-43.8-101.3
		c44.4,22.7,89.5,44,135.1,64.1c0,0,0,0,0,0l85.4,35.8c35.3,14,71,27.4,106.9,39.8c36,12.4,72.3,24,108.8,34.8
		c1.8,0.5,3.6,0.6,5.4,0.5c-0.4-27-0.8-54-1.2-81C1122.6,656.5,1119.7,481.9,1116.8,307.2L1116.8,307.2z"/>
	<path id="wave-mid" class="st3" d="M62.3,604.5c0.1,6.9,0.3,13.8,0.5,20.7c3.7,178.8,6.7,357.5,9,536.3c0.1,8.3,0.2,16.6,0.3,24.8
		c0.8,65.2,1.6,130.5,2.2,195.7l0,0c-0.7-65.2-1.4-130.5-2.2-195.7c18.7,19.5,48.2,50,69,70.6L176,1289
		c49.7,43.1,103.5,81.2,160.5,114c0,0-0.1,0-0.1,0l0.1,0l52.4,28.2l0,0c0,0,0,0,0,0c7.6,3.8,15.1,7.6,22.8,11.3
		c-13.2-47.2-19.2-96.5-17.3-145.6c0.5-14,14.2-20.8,26.3-15.1c28.3,13.4,58.7,22.6,86.2,37.6c28.8,15.8,56.5,33.5,85.3,49.4
		c19.4,10.7,38.9,20.9,58.6,30.9L681,1415l0.1,0c0,0,0,0,0-0.1c2.4,1.2,4.8,2.3,7.2,3.4l12,5.7c2.4,1.1,4.8,2.3,7.2,3.4c0,0,0,0,0,0
		l33.9,15.6l25.3,11.2l33.6,14.3l0.1,0.1c0,0,0-0.1,0-0.1c9.7,4.1,19.4,8.1,29.2,12.1c-15.3-56.4-26.1-114-32.5-172.1
		c-1.6-14,15.7-20.6,26.3-15.1c16.5,8.7,33.1,17.3,49.8,25.6c67.4,33.5,136.7,63.3,207.4,89.1c17,6.2,34.4,11.5,51.2,18.1
		c0.9,0.4,1.8,0.8,2.7,1.2c-0.2-12.3-0.3-24.6-0.5-36.8c-2.3-159.5-4.7-318.9-7.2-478.4c-1.8,0.1-3.6,0-5.4-0.5
		c-36.5-10.8-72.8-22.4-108.9-34.8c-36-12.4-71.6-25.7-106.9-39.8l-85.4-35.8c0,0,0,0,0,0c-45.6-20.1-90.7-41.4-135.1-64.1
		c12.3,34.7,27.5,68.3,43.8,101.3l36.5,70.9c3.8,18.3-3.3,26.6-16.3,29.7l-32.5-14.6l-52.3-26l-33.4-17.4c0,0,0,0,0,0
		c-60.8-32.4-120.2-67.4-178-105c0,0,0,0,0,0l0,0l-53.6-36c0,0,0,0,0,0c-18.1-12.5-36-25.1-53.7-38.1c4.3,19.1,8.6,38.2,13,57.3
		l14.7,65c4.5,17.2,5.3,26.9-3.9,29c-5.2,1.2-13.9-0.6-26.2-4.8l-22.3-9.1c-9.8-6.5-19-12.1-29.5-19.7l0,0
		c-6.9-5.4-13.7-11-20.4-16.5c-26.5-22-52.4-44.6-77.7-67.9c-5.7-5.2-11.3-10.6-17-15.9v0l-34.9-33.5
		C114.1,659.5,87.9,632.3,62.3,604.5z M1122.2,1458.9c-0.1-0.1,0.2,0.5,0.4,1l-0.2-0.5C1122.4,1459.1,1122.3,1458.9,1122.2,1458.9z"
		/>
	<path id="spiegelung" class="st4" d="M174.9,1649.1h-7.7c-5.3,0-9.7-4.3-9.7-9.7V488.2c0-5.3,4.3-9.7,9.7-9.7h7.7
		c5.3,0,9.7,4.3,9.7,9.7v1151.2C184.6,1644.8,180.3,1649.1,174.9,1649.1z"/>
</g>
</svg>
