<?xml version="1.0" encoding="utf-8"?>
<!-- Generator: Adobe Illustrator 25.4.1, SVG Export Plug-In . SVG Version: 6.00 Build 0)  -->
<svg version="1.1"
	 id="Capa_2" inkscape:version="1.0.2-2 (e86c870879, 2021-01-15)" xmlns:cc="http://creativecommons.org/ns#" xmlns:dc="http://purl.org/dc/elements/1.1/" xmlns:inkscape="http://www.inkscape.org/namespaces/inkscape" xmlns:rdf="http://www.w3.org/1999/02/22-rdf-syntax-ns#" xmlns:sodipodi="http://sodipodi.sourceforge.net/DTD/sodipodi-0.dtd" xmlns:svg="http://www.w3.org/2000/svg"
	 xmlns="http://www.w3.org/2000/svg" xmlns:xlink="http://www.w3.org/1999/xlink" x="0px" y="0px" viewBox="0 0 2122 2122"
	 style="enable-background:new 0 0 2122 2122;" xml:space="preserve">
<style type="text/css">
	.st0{display:none;fill:#FFFFFF;}
	.st1{fill:#E080B3;}
	.st2{fill:#666666;}
	.st3{fill:#999999;}
	.st4{fill:#FFFF00;}
	.st5{fill:#FFFFFF;}
</style>
<sodipodi:namedview  bordercolor="#666666" borderopacity="1" gridtolerance="10" guidetolerance="10" id="namedview162" inkscape:current-layer="g159" inkscape:cx="846.03518" inkscape:cy="1353.1536" inkscape:pageopacity="0" inkscape:pageshadow="2" inkscape:snap-text-baseline="true" inkscape:window-height="1017" inkscape:window-maximized="1" inkscape:window-width="1920" inkscape:window-x="1912" inkscape:window-y="-8" inkscape:zoom="0.28324258" objecttolerance="10" pagecolor="#ffffff" showgrid="false">
	</sodipodi:namedview>
<g id="g159">
	<path id="wave-bottom" class="st1" d="M683.1,1192.4c1.5,120.5,2.7,241,3.4,361.5c0.6,1.7,1.3,3.4,2,5.1
		c32.7,43.2,87.2,63.3,137.6,77.3c107.7,29.9,221,33.9,331.5,20.1c55.9-7,111.3-18.8,165.5-34.2c26.2-7.4,52.5-15.2,77.9-24.8
		c17-6.4,37.4-16.1,42.6-35.2c0.2-0.9,0.5-1.6,0.9-2.3c-0.9-65.1-1.8-130.1-2.8-195.2c-0.6-0.3-1.3-0.6-1.9-0.8
		c-12-4.7-24.4-8.5-36.6-12.9c-50.5-18.5-100-39.7-148.2-63.6c-11.9-5.9-23.8-12-35.6-18.3c-7.5-4-19.9,0.8-18.8,10.8
		c4.6,41.5,12.3,82.6,23.2,123c-7-2.8-13.9-5.7-20.9-8.6c0,0,0,0,0,0.1l0,0l-24-10.2l-18.1-8l-24.2-11.1c0,0,0,0,0,0
		c-1.7-0.8-3.4-1.6-5.1-2.4l-8.6-4.1c-1.7-0.8-3.4-1.6-5.1-2.5c0,0,0,0,0,0l-0.1,0l-21.6-10.9c-14.1-7.2-28.1-14.5-41.9-22.1
		c-20.6-11.3-40.4-24-60.9-35.3c-19.6-10.8-41.4-17.3-61.5-26.9c-8.6-4.1-18.4,0.8-18.8,10.8c-1.3,35,2.9,70.2,12.3,104
		c-5.5-2.6-10.9-5.3-16.3-8.1c0,0,0,0,0,0l0,0l-37.4-20.1l-0.1,0c0,0,0.1,0,0.1,0c-40.7-23.4-79.1-50.7-114.7-81.4l-24.9-22.9
		C717.6,1228.1,696.5,1206.3,683.1,1192.4z M1433.2,1387.1c0,0,0.1,0.1,0.2,0.3l0.1,0.4C1433.4,1387.4,1433.1,1387,1433.2,1387.1z"
		/>
	<g id="metal">
		<path id="bot" class="st2" d="M1318.8,1649.3c-113.9,31.1-233.3,46.4-351.3,36.9c-58.2-4.7-116.4-15.1-172-33
			c-33.8-10.9-66.9-25.6-94.6-47.3c-3,24,9.7,46.9,27.3,62.9c21,19.1,48.8,30.1,75.7,37.8c27,7.7,54.8,12.1,82.5,16.1
			c29.5,4.2,59.2,7.3,88.9,9.5c59.2,4.4,118.8,4.8,178.1,1.4c52.1-3,106.1-6.7,155.8-23.6c22-7.5,43.5-18.2,61.3-33.3
			c15.9-13.6,29.9-31.5,30.8-52.9C1374.3,1633.7,1346.4,1641.8,1318.8,1649.3z"/>
		<path id="neck" class="st2" d="M676.3,565.4c-1.2,1.8-3.5,4.2-4.2,6.4c0.6,2.9,4.2,6,6.2,7.8c10.8,10.1,26.1,14.3,40.1,17.8
			c19.8,4.9,39.7,9.2,59.6,13.3c135.4,28.4,275.5,43.8,412.4,17c60.5-11.8,120.3-30.1,175.8-57.1c13.5-6.6,26.7-13.7,39.6-21.4
			c6.5-3.9,13.1-7.8,19.3-12.2c0.9-0.6,2.3-1.8,3.1-2.4c0.2-0.2,0.4-0.3,0.6-0.4c0.2-2.6-1.5-5.5-2.7-7.7
			c-10.2-19.7-28-34.9-45.9-48.4c-6.9,13.5-22.3,22.7-34.8,30.3c-17.9,10.8-37.5,18.7-57.7,24.2c-41.6,11.3-85.6,14.4-128.4,18.7
			c-43.4,4.4-86.9,7.7-130.5,8.7c-43.7,1-87.5-0.5-130.9-5.8c-41.7-5.1-85.2-12.1-124.5-27.7c-15.3-6.1-34.1-14.3-45.3-27.6
			c-11.9,13.5-23.5,27.4-34.3,41.9C688,548.9,682.1,557.1,676.3,565.4z"/>
		<path id="hinge" class="st3" d="M933.1,457.1c27.9,9.3,57.8,8,86.8,6.8c8.2-25.5,15.5-57.5-13-72.4c-11.5-6-25-8.9-37.6-11.8
			c-14.7-3.4-29.5-5.9-44.6-5.3c-12,0.5-25.3,2.9-35.2,10.3c-9.6,7.1-11,17.4-7.4,28.4C889.4,435.1,912,450,933.1,457.1z
			 M920.1,402.6c1.5-2.6,3.5-4.6,6.1-6.1c0.8-0.5,1.6-0.8,2.5-1.2c0.9-0.4,1.8-0.8,2.8-1c3-0.7,6.1-1,9.1-0.6
			c3.2,0.4,6.3,0.8,9.4,1.8c3.9,1.3,7.7,3.1,10.7,6.1c3.4,3.4,5.8,8.4,5.5,13.4c-0.4,4.8-2.1,9.7-5.8,12.9c-2.6,2.3-5.3,3.7-8.8,4.2
			c-2.3,0.3-3.4,0.4-5.9-0.2c-0.2,0-0.3-0.1-0.5-0.2c-0.3,0-0.5,0.1-0.8,0.1c-4,0.1-8.4,0-12.2-1.3c-3.3-1.2-5.8-2.6-8.4-5
			c-2-1.9-3.4-4.1-4.4-6.6c-1-2.5-1.8-4.9-1.6-7.7C917.9,408,918.5,405.3,920.1,402.6z"/>
		<path id="lid" class="st3" d="M757.3,490.6c7.2,4.7,15,8.7,23,11.9c17.3,6.9,35.7,11.5,53.9,15.6c77.8,17.7,158.2,19.7,237.6,15.4
			c40-2.2,79.8-6,119.6-10.4c38-4.2,76.7-8.1,112.6-21.8c16.5-6.3,32.4-15.2,46.3-26.2c5-3.9,10.3-7.9,8.3-14.9
			c-2-7-8.5-11.2-14.6-14.5c-15.9-8.7-33.5-15.2-50.4-21.5c-17.7-6.6-35.7-12.5-54-17.6c-64.5-17.8-131.2-23.3-197.7-17.2
			c3.3,4.9,5.7,10.1,7.3,15.5c0.4-0.1,0.7-0.2,1.1-0.2c27.3-3.6,55-2.3,81.9,3.5c11.5,2.5,22.8,5.7,33.7,10
			c10.6,4.1,20.8,9.2,27.9,18.5c6.6,8.6,9.3,20.2,6.2,30.7c-3.3,11.1-13.3,18-24.2,20.3c-11.9,2.5-24.4,3.1-36.6,4
			c-13.1,0.9-26.1,1.4-39.2,1.5c-25.3,0.1-50.7-1.5-75.8-4.6c-0.1,0-0.2,0-0.2,0c-0.7,0.1-1.5,0.3-2.3,0.3
			c-39.2,1.6-80,2.4-115.8-16.1c-19.4-10-39.3-28.2-47.3-49.8c-0.7,0.2-1.4,0.3-2.1,0.4c-8.8,1.1-17.6,2.9-26.2,4.9
			c-18,4.3-35.7,10.3-52.5,18.2c-11.2,5.3-33.8,13.8-34,29.1C744,482.4,752.1,487.2,757.3,490.6z"/>
	</g>
	<g id="outline">
		<path id="path156" d="M923.8,425.4c2.6,2.4,5.1,3.8,8.4,5c3.8,1.4,8.2,1.5,12.2,1.3c0.3,0,0.5-0.1,0.8-0.1c0.2,0,0.3,0.1,0.5,0.2
			c2.5,0.6,3.6,0.5,5.9,0.2c3.5-0.5,6.2-1.9,8.8-4.2c3.7-3.2,5.4-8.1,5.8-12.9c0.4-4.9-2-9.9-5.5-13.4c-3-3-6.7-4.8-10.7-6.1
			c-3-1-6.2-1.4-9.4-1.8c-3-0.4-6.2-0.2-9.1,0.6c-1,0.2-1.8,0.7-2.8,1c-0.9,0.4-1.7,0.7-2.5,1.2c-2.5,1.6-4.5,3.6-6.1,6.1
			c-1.6,2.7-2.2,5.4-2.4,8.5c-0.2,2.7,0.6,5.2,1.6,7.7C920.4,421.3,921.8,423.5,923.8,425.4z"/>
		<path id="Outline" d="M654.7,960.7c2.2,127.7,3.9,255.4,5.2,383.1c0.7,72.1,1.3,144.3,1.7,216.4c0,3.8,1.4,6.6,3.5,8.6
			c0.2,0.4,0.4,0.9,0.7,1.2c4.5,6.2,9.5,11.9,14.6,17.3c-1.1,1.3-2,2.9-2.5,5c-7,27.7,1.2,56.6,18.5,78.8
			c17.3,22.3,41.9,37.1,67.6,47.8c27.3,11.4,56.2,18,85.2,22.9c31.2,5.3,62.7,9.3,94.3,12.4c63.2,6.1,126.8,7.8,190.2,5.1
			c31.2-1.4,62.4-3.7,93.4-7.3c27-3.2,53.9-7.5,80-15.4c28.8-8.8,56.2-21.9,79.4-41.2c22.7-18.9,41.8-46.7,39.6-77.5
			c-0.1-1.5-0.4-2.9-0.9-4.2c18.5-9.2,35.1-22.1,41.6-42.4c1.7-1.9,2.7-4.5,2.7-7.8c-1.8-133.6-3.8-267.2-5.8-400.8
			c-2-133.2-4.1-266.4-6.2-399.6c-1.2-75.1-2.5-150.2-3.7-225.3c0-0.3-0.1-0.6-0.1-1c0.5-3.3,0.3-6.8-0.7-10.7
			c-4.8-17.8-18.8-33.4-31.8-45.8c-12.7-12.1-26.7-22.6-40.8-33.1c-6-11.9-18.2-20.7-30.1-26.3c-19.3-9.1-39.3-17.1-59.5-24.3
			c-76.6-27.4-158.3-39.5-239.5-33.1c-10.7,0.8-21.3,2-31.9,3.4c-1.4,0.2-2.8,0.6-4.1,1c-8.2-3.9-17-6.6-25.9-9
			c-18.1-4.9-36.8-9-55.6-9.6c-32-1-74.7,10.9-78.4,48.6c0,0.2,0,0.3,0,0.5c-20.2,2.7-39.9,7-59.2,13.7
			c-18.8,6.5-38.9,14.4-55.1,26.2c-11.6,8.4-21,21.6-21.9,35.5c-1.7,0.6-3.3,1.7-4.8,3.3c-13.1,14.7-25.7,29.9-37.7,45.6
			c-5.7,7.4-11.2,14.9-16.6,22.5c-5.5,7.8-12.4,15.8-12.9,25.8c-0.4,1.3-0.7,2.6-0.6,4.2C649.8,703.7,652.5,832.2,654.7,960.7z
			 M744.1,475.4c0.1-15.3,22.7-23.7,34-29.1c16.8-7.9,34.5-13.9,52.5-18.2c8.6-2,17.4-3.8,26.2-4.9c0.7-0.1,1.4-0.2,2.1-0.4
			c8,21.6,27.9,39.8,47.3,49.8c35.8,18.5,76.6,17.7,115.8,16.1c0.8,0,1.5-0.2,2.3-0.3c0.1,0,0.1,0,0.2,0c25.2,3.1,50.5,4.7,75.8,4.6
			c13.1-0.1,26.2-0.6,39.2-1.5c12.1-0.9,24.7-1.5,36.6-4c10.9-2.3,20.9-9.2,24.2-20.3c3.1-10.5,0.4-22.1-6.2-30.7
			c-7.1-9.2-17.3-14.3-27.9-18.5c-10.9-4.2-22.3-7.5-33.7-10c-26.9-5.7-54.6-7-81.9-3.5c-0.4,0-0.7,0.1-1.1,0.2
			c-1.6-5.5-4-10.7-7.3-15.5c66.4-6.1,133.1-0.6,197.7,17.2c18.2,5,36.2,10.9,54,17.6c17,6.4,34.5,12.8,50.4,21.5
			c6,3.3,12.5,7.6,14.6,14.5c2,7-3.3,10.9-8.3,14.9c-13.8,10.9-29.8,19.9-46.3,26.2c-35.9,13.7-74.7,17.6-112.6,21.8
			c-39.8,4.4-79.6,8.2-119.6,10.4c-79.4,4.3-159.8,2.3-237.6-15.4c-18.2-4.1-36.5-8.7-53.9-15.6c-8-3.2-15.8-7.2-23-11.9
			C752.1,487.2,744,482.4,744.1,475.4z M889.5,384.6c9.8-7.3,23.2-9.8,35.2-10.3c15.1-0.6,30,1.9,44.6,5.3c12.6,3,26,5.8,37.6,11.8
			c28.4,14.9,21.1,46.9,13,72.4c-29,1.2-58.9,2.5-86.8-6.8c-21.1-7-43.7-22-50.9-44.1C878.6,402,879.9,391.7,889.5,384.6z
			 M1161.2,449.6c0.7-0.6,1.7-0.8,3.3,0L1161.2,449.6z M728.4,499c11.3,13.3,30,21.5,45.3,27.6c39.3,15.6,82.8,22.6,124.5,27.7
			c43.4,5.3,87.2,6.8,130.9,5.8c43.6-0.9,87.1-4.3,130.5-8.7c42.8-4.3,86.8-7.4,128.4-18.7c20.2-5.5,39.8-13.3,57.7-24.2
			c12.5-7.6,27.8-16.9,34.8-30.3c17.9,13.5,35.8,28.7,45.9,48.4c1.2,2.2,2.8,5.1,2.7,7.7c-0.2,0.1-0.3,0.2-0.6,0.4
			c-0.9,0.6-2.3,1.8-3.1,2.4c-6.2,4.4-12.8,8.3-19.3,12.2c-12.9,7.7-26.1,14.8-39.6,21.4c-55.5,27-115.3,45.3-175.8,57.1
			c-136.9,26.8-277,11.5-412.4-17c-19.9-4.2-39.9-8.4-59.6-13.3c-14-3.5-29.3-7.7-40.1-17.8c-2-1.8-5.6-4.9-6.2-7.8
			c0.6-2.2,3-4.7,4.2-6.4c5.7-8.3,11.7-16.5,17.7-24.6C704.9,526.5,716.5,512.5,728.4,499z M1370.5,1676.6
			c-17.8,15.2-39.3,25.9-61.3,33.3c-49.8,16.8-103.8,20.6-155.8,23.6c-59.3,3.4-118.8,3-178.1-1.4c-29.7-2.2-59.4-5.3-88.9-9.5
			c-27.7-4-55.5-8.4-82.5-16.1c-26.9-7.7-54.7-18.7-75.7-37.8c-17.6-16-30.3-38.9-27.3-62.9c27.7,21.8,60.8,36.4,94.6,47.3
			c55.6,17.9,113.8,28.3,172,33c118,9.6,237.4-5.8,351.3-36.9c27.7-7.6,55.6-15.6,82.5-25.6
			C1400.4,1645.1,1386.4,1663,1370.5,1676.6z M1401.1,1597.3c-25.5,9.6-51.8,17.4-77.9,24.8c-54.2,15.3-109.6,27.2-165.5,34.2
			c-110.6,13.8-223.8,9.8-331.5-20.1c-50.3-14-104.9-34.2-137.6-77.3c-0.4-0.5-0.8-0.9-1.2-1.4c-0.3-0.3-0.6-0.7-0.8-1
			c0-0.9,0-1.8,0-2.6c-0.7-120.5-1.9-241-3.4-361.5c-0.1-5.9-0.1-11.8-0.2-17.7c-1.7-127.7-3.8-255.4-6.4-383.1
			c-0.1-4.9-0.2-9.9-0.3-14.8c-1.2-56.9-2.5-113.7-3.8-170.6c2.1,1.3,4.2,2.5,6.2,3.5c14.3,7.3,30,11.1,45.5,14.7
			c78.5,18.1,157.9,32.9,238.3,39.3c140.1,11.1,283.5-8.2,411.3-68.8c15.9-7.6,31.6-15.8,46.7-25c2.9-1.8,6-3.5,9.1-5.4
			c2.1,124.7,4.1,249.5,6.1,374.2c0.3,19.3,0.6,38.6,0.9,57.9c1.8,113.9,3.5,227.8,5.1,341.7c0.1,8.8,0.2,17.6,0.4,26.3
			c0.9,65.1,1.9,130.2,2.8,195.2c-0.3,0.7-0.7,1.5-0.9,2.3C1438.5,1581.3,1418.1,1590.9,1401.1,1597.3z M672.2,572
			c0.1,1.2-0.2,0.7-0.1,0.2C672.1,572.1,672.1,572,672.2,572z M1429.1,534.2c0.1-0.2,0.2-0.4,0.4-0.6c0,0.1-0.1,0.2-0.1,0.3
			C1429.3,534.1,1429.2,534.2,1429.1,534.2z"/>
	</g>
	<path id="wave-top" class="st1" d="M1429.3,564.5c-3.1,1.9-6.2,3.7-9.1,5.4c-15.1,9.1-30.7,17.4-46.7,25
		c-127.7,60.7-271.2,80-411.3,68.8c-80.3-6.4-159.8-21.2-238.3-39.3c-15.6-3.6-31.2-7.4-45.5-14.7c-2-1-4.1-2.2-6.2-3.5
		c1.4,56.9,2.7,113.7,3.8,170.6c18.2,19.9,37,39.3,56.2,58.2l24.9,23.9v0c4,3.8,8,7.6,12.1,11.4c18.1,16.6,36.6,32.8,55.5,48.5
		c4.8,4,9.6,8,14.5,11.8l0,0c7.5,5.4,14.1,9.4,21.1,14l15.9,6.5c8.8,3,15,4.2,18.7,3.4c6.6-1.5,6-8.4,2.8-20.7l-10.5-46.4
		c-3.1-13.7-6.2-27.3-9.3-40.9c12.7,9.3,25.5,18.3,38.4,27.2c0,0,0,0,0,0l38.3,25.7l0,0c0,0,0,0,0,0c41.2,26.9,83.7,51.9,127.1,75
		c0,0,0,0,0,0l23.8,12.4l37.3,18.5l23.2,10.4c9.3-2.2,14.4-8.2,11.6-21.2l-26.1-50.7c-11.6-23.6-22.4-47.6-31.3-72.4
		c31.7,16.2,63.9,31.5,96.5,45.8c0,0,0,0,0,0l61,25.5c25.2,10,50.7,19.5,76.4,28.4c25.7,8.9,51.7,17.2,77.8,24.9
		c1.3,0.4,2.6,0.4,3.8,0.4c-0.3-19.3-0.6-38.6-0.9-57.9C1433.4,813.9,1431.4,689.2,1429.3,564.5L1429.3,564.5z"/>
	<path id="wave-mid" class="st4" d="M676.1,776.8c0.1,4.9,0.2,9.9,0.3,14.8c2.6,127.7,4.8,255.4,6.4,383.1
		c0.1,5.9,0.1,11.8,0.2,17.7c0.6,46.6,1.1,93.2,1.6,139.8l0,0c-0.5-46.6-1-93.2-1.6-139.8c13.4,13.9,34.5,35.7,49.3,50.4l24.9,22.9
		c35.5,30.8,74,58,114.7,81.4c0,0-0.1,0-0.1,0l0.1,0l37.4,20.1l0,0c0,0,0,0,0,0c5.4,2.7,10.8,5.5,16.3,8.1
		c-9.5-33.8-13.7-68.9-12.3-104c0.4-10,10.2-14.8,18.8-10.8c20.2,9.6,42,16.1,61.5,26.9c20.5,11.3,40.3,23.9,60.9,35.3
		c13.8,7.6,27.8,14.9,41.9,22.1l21.6,10.9l0.1,0c0,0,0,0,0,0c1.7,0.8,3.4,1.6,5.1,2.5l8.6,4.1c1.7,0.8,3.4,1.6,5.1,2.4c0,0,0,0,0,0
		l24.2,11.1l18.1,8l24,10.2l0,0c0,0,0,0,0-0.1c6.9,2.9,13.9,5.8,20.9,8.6c-10.9-40.3-18.6-81.4-23.2-123
		c-1.1-10,11.2-14.7,18.8-10.8c11.8,6.2,23.6,12.3,35.6,18.3c48.2,23.9,97.6,45.2,148.2,63.6c12.1,4.4,24.6,8.2,36.6,12.9
		c0.7,0.3,1.3,0.6,1.9,0.8c-0.1-8.8-0.2-17.5-0.4-26.3c-1.6-113.9-3.4-227.8-5.1-341.7c-1.3,0.1-2.6,0-3.8-0.4
		c-26.1-7.7-52-16-77.8-24.9c-25.7-8.9-51.1-18.4-76.4-28.4l-61-25.5c0,0,0,0,0,0c-32.6-14.3-64.8-29.6-96.5-45.8
		c8.8,24.8,19.6,48.8,31.3,72.4l26.1,50.7c2.7,13-2.3,19-11.6,21.2l-23.2-10.4l-37.3-18.5l-23.8-12.4c0,0,0,0,0,0
		c-43.4-23.2-85.9-48.2-127.1-75c0,0,0,0,0,0l0,0l-38.3-25.7c0,0,0,0,0,0c-12.9-8.9-25.7-17.9-38.4-27.2c3.1,13.7,6.2,27.3,9.3,40.9
		l10.5,46.4c3.2,12.3,3.8,19.2-2.8,20.7c-3.7,0.8-9.9-0.4-18.7-3.4l-15.9-6.5c-7-4.6-13.6-8.6-21.1-14l0,0c-5-3.8-9.8-7.9-14.5-11.8
		c-18.9-15.7-37.4-31.9-55.5-48.5c-4.1-3.8-8.1-7.6-12.1-11.4v0l-24.9-23.9C713.1,816,694.4,796.7,676.1,776.8z M1433.2,1387.1
		c-0.1-0.1,0.2,0.4,0.3,0.7l-0.1-0.4C1433.3,1387.2,1433.2,1387.1,1433.2,1387.1z"/>
	<path id="accent" class="st5" d="M753.8,1522.9L753.8,1522.9c-5.3,0-9.7-4.3-9.7-9.7V696.5c0-5.3,4.3-9.7,9.7-9.7l0,0
		c5.3,0,9.7,4.3,9.7,9.7v816.8C763.5,1518.6,759.1,1522.9,753.8,1522.9z"/>
</g>
</svg>
